# xmcd
#
# Track frame offsets:
#	150
#	14403
#	36779
#	54801
#	70567
#	91917
#	106244
#	125615
#	140106
#	155729
#	175474
#	198370
#
# Disc length: 2750 seconds
#
# Revision: 0
# Processed by: cddbd v1.5.2PL0 Copyright (c) Steve Scherf et al.
# Submitted via: EasyCDDAExtractor 16.0.1.1
#
DISCID=a10abc0c
DTITLE=Stephanie Davis - Crocus In The Snow
DYEAR=2003
DGENRE=Country
TTITLE0=Somethin' 'bout Montana
TTITLE1=Talkin' Harvest Time Blues
TTITLE2=Crocus In The Snow
TTITLE3=Just A Cup Of Coffee
TTITLE4=Some Things Cost Too Much
TTITLE5=Turning To The Light
TTITLE6=Ikey
TTITLE7=Yodel Blues
TTITLE8=Cold Wind Blow
TTITLE9=You Been A Friend To Me
TTITLE10=The Spotted Ass
TTITLE11=Good Night Little Cowpup
EXTD=
EXTT0=
EXTT1=
EXTT2=
EXTT3=
EXTT4=
EXTT5=
EXTT6=
EXTT7=
EXTT8=
EXTT9=
EXTT10=
EXTT11=
PLAYORDER=
